<svg width="100" height="100" viewBox="0 0 100 100" fill="none" xmlns="http://www.w3.org/2000/svg">
<path d="M66.4917 67.2833C66.147 67.2873 65.8066 67.2056 65.5012 67.0456C65.1957 66.8856 64.9348 66.6523 64.7417 66.3666C64.5878 66.1352 64.4818 65.8752 64.4299 65.6022C64.378 65.3291 64.3812 65.0484 64.4395 64.7766C64.4977 64.5048 64.6098 64.2474 64.769 64.0195C64.9283 63.7917 65.1315 63.598 65.3667 63.45C70.7266 60.0025 74.826 54.912 77.0514 48.9404C79.2767 42.9687 79.5085 36.4369 77.7119 30.3226C75.9153 24.2082 72.1869 18.84 67.0849 15.0214C61.9828 11.2028 55.7813 9.13906 49.4084 9.13906C43.0355 9.13906 36.834 11.2028 31.732 15.0214C26.6299 18.84 22.9015 24.2082 21.1049 30.3226C19.3083 36.4369 19.5401 42.9687 21.7654 48.9404C23.9908 54.912 28.0902 60.0025 33.4501 63.45C33.6958 63.5901 33.9104 63.7789 34.0807 64.0047C34.2511 64.2304 34.3738 64.4886 34.4412 64.7633C34.5085 65.038 34.5193 65.3236 34.4727 65.6026C34.4261 65.8816 34.3232 66.1482 34.1703 66.3862C34.0173 66.6241 33.8175 66.8284 33.583 66.9866C33.3485 67.1448 33.0842 67.2536 32.8063 67.3064C32.5284 67.3591 32.2427 67.3547 31.9665 67.2935C31.6904 67.2322 31.4296 67.1153 31.2001 66.95C25.0822 63.0162 20.4029 57.207 17.8623 50.3918C15.3217 43.5765 15.0566 36.1218 17.1066 29.1433C19.1566 22.1648 23.4114 16.0378 29.2343 11.6794C35.0572 7.32093 42.135 4.96545 49.4084 4.96545C56.6818 4.96545 63.7596 7.32093 69.5825 11.6794C75.4054 16.0378 79.6602 22.1648 81.7102 29.1433C83.7602 36.1218 83.4951 43.5765 80.9545 50.3918C78.4139 57.207 73.7346 63.0162 67.6167 66.95C67.2846 67.1734 66.892 67.2898 66.4917 67.2833Z" fill="#FF4343"/>
<path d="M66.4917 83.7417H32.325C31.7758 83.731 31.2521 83.5081 30.8637 83.1197C30.4753 82.7313 30.2524 82.2076 30.2417 81.6584V65.2C30.2524 64.6508 30.4753 64.1271 30.8637 63.7387C31.2521 63.3503 31.7758 63.1274 32.325 63.1167C32.8776 63.1167 33.4075 63.3362 33.7982 63.7269C34.1889 64.1176 34.4084 64.6475 34.4084 65.2V79.575H64.4084V65.2C64.4084 64.6475 64.6279 64.1176 65.0186 63.7269C65.4093 63.3362 65.9392 63.1167 66.4917 63.1167C67.0409 63.1274 67.5646 63.3503 67.953 63.7387C68.3415 64.1271 68.5644 64.6508 68.575 65.2V81.6584C68.5644 82.2076 68.3415 82.7313 67.953 83.1197C67.5646 83.5081 67.0409 83.731 66.4917 83.7417Z" fill="#FF4343"/>
<path d="M38.4918 93.9084C37.9392 93.9084 37.4093 93.6889 37.0186 93.2982C36.6279 92.9075 36.4084 92.3776 36.4084 91.8251V84.4918C36.4191 83.9426 36.642 83.4189 37.0304 83.0304C37.4188 82.642 37.9426 82.4191 38.4918 82.4084C39.0443 82.4084 39.5742 82.6279 39.9649 83.0186C40.3556 83.4093 40.5751 83.9392 40.5751 84.4918V91.8251C40.5751 92.3776 40.3556 92.9075 39.9649 93.2982C39.5742 93.6889 39.0443 93.9084 38.4918 93.9084Z" fill="#FF4343"/>
<path d="M60.3251 93.9084C59.7726 93.9084 59.2427 93.6889 58.852 93.2982C58.4613 92.9075 58.2418 92.3776 58.2418 91.8251V84.4918C58.2418 83.9392 58.4613 83.4093 58.852 83.0186C59.2427 82.6279 59.7726 82.4084 60.3251 82.4084C60.8743 82.4191 61.398 82.642 61.7864 83.0304C62.1749 83.4189 62.3978 83.9426 62.4084 84.4918V91.8251C62.4084 92.3776 62.1889 92.9075 61.7982 93.2982C61.4075 93.6889 60.8776 93.9084 60.3251 93.9084Z" fill="#FF4343"/>
<path d="M49.4083 83.7416C48.8558 83.7416 48.3259 83.5221 47.9352 83.1314C47.5445 82.7407 47.325 82.2108 47.325 81.6582V48.3249C47.325 47.7724 47.5445 47.2425 47.9352 46.8518C48.3259 46.4611 48.8558 46.2416 49.4083 46.2416C49.9609 46.2416 50.4908 46.4611 50.8815 46.8518C51.2722 47.2425 51.4917 47.7724 51.4917 48.3249V81.6582C51.4917 82.2108 51.2722 82.7407 50.8815 83.1314C50.4908 83.5221 49.9609 83.7416 49.4083 83.7416Z" fill="#FF4343"/>
</svg>
